<?xml version="1.0"?>
<svg width="241.4" height="315" xmlns="http://www.w3.org/2000/svg" xmlns:svg="http://www.w3.org/2000/svg">
 <style type="text/css">.st0{fill:#2D2A63;}	.st1{fill:#98BDD3;}	.st2{fill:#7292AA;}	.st3{fill:#19F99E;}</style>

 <metadata/>
 <g class="layer">
  <title>Layer 1</title>
  <g fill="rgba(45, 42, 99, 1)" id="color_index_0">
   <rect height="40.2" id="svg_1" width="218.6" x="7.3" y="7.3"/>
   <polygon id="svg_2" points="7.3,127 225.9,127 225.9,215.8 116.6,305.6 42.4,244.6 28,232.8 7.3,215.8 	"/>
  </g>
  <g fill="rgba(152, 189, 211, 1)" id="color_index_2">
   <polygon id="svg_3" points="25.700000762939453,46.5 18.600000381469727,5.900000095367432 17.700000762939453,6.099999904632568 24.799999237060547,46.5 "/>
   <polygon id="svg_4" points="49.400001525878906,46.5 44.099998474121094,5.800000190734863 43.20000076293945,6 48.5,46.5 "/>
   <polygon id="svg_5" points="73.19999694824219,46.5 69.5,5.199999809265137 68.5999984741211,5.300000190734863 72.30000305175781,46.5 "/>
   <polygon id="svg_6" points="96.9000015258789,46.5 95,5.599999904632568 94.0999984741211,5.699999809265137 96,46.5 "/>
   <polygon id="svg_7" points="120.5999984741211,46.5 119.69999694824219,46.5 119.5999984741211,29.299999237060547 120.5,28.399999618530273 "/>
   <polygon id="svg_8" points="120.5,23.700000762939453 119.5999984741211,22.799999237060547 119.5,5 120.4000015258789,5 "/>
   <polygon id="svg_9" points="145.8000030517578,5.400000095367432 144.89999389648438,5.400000095367432 143.39999389648438,46.5 144.3000030517578,46.5 "/>
   <polygon id="svg_10" points="171.3000030517578,5.300000190734863 170.39999389648438,5.199999809265137 167.10000610351562,46.5 168,46.5 "/>
   <polygon id="svg_11" points="182,126 181.10000610351562,126 177.5,155.39999389648438 178.60000610351562,154.39999389648438 "/>
   <polygon id="svg_12" points="196.60000610351562,5.900000095367432 195.6999969482422,5.800000190734863 190.8000030517578,46.5 191.6999969482422,46.5 "/>
   <polygon id="svg_13" points="198.6999969482422,142.6999969482422 199.60000610351562,142.8000030517578 202.39999389648438,126 201.39999389648438,126 "/>
   <polygon id="svg_14" points="221.1999969482422,5.699999809265137 214.5,46.5 215.39999389648438,46.5 222,5.800000190734863 "/>
   <polygon id="svg_15" points="221.8000030517578,126 218.3000030517578,142.39999389648438 219.1999969482422,142.60000610351562 222.6999969482422,126 "/>
   <polygon id="svg_16" points="158,214.3000030517578 154.5,216 161.6999969482422,126 160.8000030517578,126 153.60000610351562,216.5 154.10000610351562,216.1999969482422 137.6999969482422,224.10000610351562 141.39999389648438,126 140.39999389648438,126 136.8000030517578,224.5 121.5,231.8000030517578 121,126 120.0999984741211,126 120.5999984741211,232 120.5999984741211,232 112.69999694824219,236 100.9000015258789,243.6999969482422 110.69999694824219,224.8000030517578 110.0999984741211,221.1999969482422 104.30000305175781,214.10000610351562 104.80000305175781,214.6999969482422 100.5999984741211,126 99.69999694824219,126 103.9000015258789,213.5 95.30000305175781,203.10000610351562 86.30000305175781,198.5 86.80000305175781,198.8000030517578 80.30000305175781,126 79.4000015258789,126 85.80000305175781,198.3000030517578 80.9000015258789,195.8000030517578 67.0999984741211,189.89999389648438 77.5999984741211,186.60000610351562 73.80000305175781,175.6999969482422 64.30000305175781,162.6999969482422 64.80000305175781,163.39999389648438 59.900001525878906,126 59,126 63.70000076293945,161.89999389648438 55.79999923706055,151 43,148.5 43.400001525878906,148.39999389648438 39.5,126 38.599998474121094,126 42.5,148.39999389648438 30.299999237060547,145.89999389648438 24.100000381469727,149.10000610351562 19.100000381469727,126 18.200000762939453,126 23.299999237060547,149.39999389648438 23.700000762939453,149.3000030517578 7.300000190734863,157.6999969482422 7.599999904632568,215.3000030517578 28.299999237060547,232.1999969482422 39.5,232.1999969482422 42.79999923706055,244 67.5,264 67.5,264 84.19999694824219,269.20001220703125 108.80000305175781,299 116.19999694824219,306 142.10000610351562,273.5 173.89999389648438,255.89999389648438 198.10000610351562,220 178.89999389648438,219.60000610351562 "/>
  </g>
  <g fill="rgba(114, 146, 170, 1)" id="color_index_1">
   <path d="m0,0l0,47.5l7.3,0l0,-40.2l218.6,0l0,40.2l7.3,0l0,-47.5l-233.2,0zm233.2,156l0,-29l-7.3,0l0,21.7l-5.6,-5.6l-29.7,0l-21,21l0,29.7l21,21l29.7,0l5.6,-5.5l0,6.4l-109.3,89.8l-109.3,-89.7l0,-88.8l-7.3,0l0,92.2l116.6,95.8l116.6,-95.8l0,-17.1l8.2,-8.2l0,-29.7l-8.2,-8.2zm-10,30.4l-10.4,10.4l-14.7,0l-10.4,-10.4l0,-14.7l10.4,-10.4l14.7,0l10.4,10.4l0,14.7z" id="svg_17"/>
  </g>
  <g fill="rgba(25, 249, 158, 1)" id="color_index_3">
   <polygon fill="#28b0a9" id="svg_18" points="73.80000305175781,175.6999969482422 55.79999923706055,151 30.399999618530273,145.5 7.300000190734863,157.6999969482422 33.099998474121094,155.39999389648438 59.20000076293945,161.8000030517578 77.5999984741211,186.60000610351562 "/>
   <polygon fill="#28b0a9" id="svg_19" points="110.0999984741211,221.1999969482422 95.30000305175781,203.10000610351562 80.9000015258789,195.8000030517578 71.5999984741211,191.8000030517578 110.69999694824219,224.8000030517578 "/>
   <polygon fill="#28b0a9" id="svg_20" points="112.4000015258789,236 100.9000015258789,243.6999969482422 147.6999969482422,227 161.89999389648438,215.60000610351562 157.8000030517578,214.5 "/>
   <polygon fill="#28b0a9" id="svg_21" points="190.60000610351562,142.1999969482422 169.60000610351562,163.1999969482422 193.60000610351562,147.39999389648438 220.3000030517578,142.1999969482422 "/>
   <path d="m128.2,30.6l-0.4,0.4l-5,-5l5,-5l0.4,0.4l4.3,0.2l2.9,-2.9l-0.2,-4.3l-3.1,-3.1l-4.3,-0.2l-2.9,2.9l0.2,4.3l0.4,0.4l-5,5l-5,-5l0.4,-0.4l0.2,-4.3l-2.9,-2.9l-4.2,0.2l-3.1,3.1l-0.2,4.3l2.9,2.9l4.3,-0.2l0.4,-0.4l5,5l-5,5l-0.4,-0.4l-4.3,-0.2l-2.9,2.9l0.2,4.2l3.1,3.1l4.3,0.2l2.9,-2.9l-0.2,-4.3l-0.4,-0.4l4.1,-4.1l0.9,-0.9l0,0l5,5l-0.4,0.4l-0.2,4.4l2.9,2.9l4.3,-0.2l3.1,-3.1l0.2,-4.2l-2.9,-2.9l-4.4,0.1zm0.1,-18.5l3.5,0.1l2.6,2.6l0.1,3.5l-2.3,2.4l-3.5,-0.1l-0.1,-0.1l-2.3,-2.3l-0.1,-0.1l-0.1,-3.5l2.2,-2.5zm-2.1,7.3l1,1l-5,5l-1,-1l5,-5zm-13.6,1l-0.1,0.1l-3.5,0.1l-2.4,-2.4l0.1,-3.5l2.6,-2.6l3.5,-0.1l2.4,2.4l-0.1,3.5l-1.2,1.2l-1.3,1.3zm0.2,19.6l-3.5,-0.1l-2.6,-2.6l-0.1,-3.5l2.4,-2.4l3.5,0.1l2.5,2.5l0.2,0.1l0.1,3.5l-2.5,2.4zm6.8,-12l-4.7,4.7l-1,-1l5,-5l1,1l-0.3,0.3zm1.6,-0.3l-1.6,-1.6l-0.7,-0.7l-5,-5l0.6,-0.6l0.4,-0.4l4.7,4.7l0.9,0.9l6.7,6.7l-1,1l-5,-5zm13.2,9.6l-2.6,2.6l-3.5,0.1l-2.3,-2.4l0.1,-3.5l0.1,-0.1l2.3,-2.3l0.1,-0.1l3.5,-0.1l2.3,2.4l0,3.4z" fill="#28b0a9" id="svg_22"/>
   <path d="m85,27.9c1.7,0 3.1,-1.4 3.1,-3.1s-1.4,-3.1 -3.1,-3.1c-1.7,0 -3.1,1.4 -3.1,3.1s1.4,3.1 3.1,3.1zm0,-5.2c1.2,0 2.2,1 2.2,2.2s-1,2.1 -2.2,2.1c-1.2,0 -2.2,-1 -2.2,-2.2s1,-2.1 2.2,-2.1z" fill="#28b0a9" id="svg_23"/>
   <path d="m156.4,27.9c1.7,0 3.1,-1.4 3.1,-3.1s-1.4,-3.1 -3.1,-3.1s-3.1,1.4 -3.1,3.1s1.4,3.1 3.1,3.1zm0,-5.2c1.2,0 2.2,1 2.2,2.2s-1,2.2 -2.2,2.2s-2.2,-1 -2.2,-2.2s1,-2.2 2.2,-2.2z" fill="#28b0a9" id="svg_24"/>
  </g>
  <text fill="#20605c" font-family="Monospace" font-size="24" font-weight="bold" id="svg_26" stroke="#313172" stroke-width="0" text-anchor="middle" transform="matrix(1.9396, 0, 0, 2.19851, -49.9653, -82.9429)" x="86.444306" xml:space="preserve" y="83.836083">TRAINIFY</text>
 </g>
</svg>